<svg xmlns="http://www.w3.org/2000/svg" viewBox="0 0 276.0 175.2" width="276.0" height="175.2">
  <path fill="#17191C" d="M9.5 72V30.1H2.1V21.6H9.5V14.8Q9.5 9.6 11.25 6.3Q13 3 16.4 1.5Q19.8 0 24.6 0H30.5V8.5H26.2Q22.6 8.5 21.05 9.95Q19.5 11.4 19.5 15V21.6H31.6V30.1H19.5V72Z M86.3 73.2Q79.2 73.2 73.55 69.9Q67.9 66.6 64.65 60.65Q61.4 54.7 61.4 46.9Q61.4 38.9 64.7 32.95Q68 27 73.7 23.7Q79.4 20.4 86.5 20.4Q93.7 20.4 99.3 23.7Q104.9 27 108.15 32.9Q111.4 38.8 111.4 46.8Q111.4 54.8 108.15 60.7Q104.9 66.6 99.2 69.9Q93.5 73.2 86.3 73.2ZM86.3 64.6Q90.4 64.6 93.75 62.6Q97.1 60.6 99.15 56.65Q101.2 52.7 101.2 46.8Q101.2 40.9 99.2 36.95Q97.2 33 93.85 31Q90.5 29 86.5 29Q82.5 29 79.1 31Q75.7 33 73.65 36.95Q71.6 40.9 71.6 46.8Q71.6 52.7 73.65 56.65Q75.7 60.6 79.05 62.6Q82.4 64.6 86.3 64.6Z M144.7 72V21.6H153.7L154.3 30.2Q156.7 25.7 161.1 23.05Q165.5 20.4 171.2 20.4Q177.2 20.4 181.5 22.8Q185.8 25.2 188.2 30.05Q190.6 34.9 190.6 42.2V72H180.6V43.2Q180.6 36.2 177.5 32.6Q174.4 29 168.5 29Q164.6 29 161.5 30.85Q158.4 32.7 156.55 36.3Q154.7 39.9 154.7 45.1V72Z M247.7 73.2Q240.5 73.2 234.9 69.9Q229.3 66.6 226.15 60.7Q223 54.8 223 47Q223 39 226.15 33.05Q229.3 27.1 234.9 23.75Q240.5 20.4 247.9 20.4Q255.3 20.4 260.6 23.7Q265.9 27 268.8 32.45Q271.7 37.9 271.7 44.5Q271.7 45.5 271.65 46.65Q271.6 47.8 271.5 49.2H232.8Q233.1 53.8 234.9 57.1Q236.9 61 240.3 62.95Q243.7 64.9 247.7 64.9Q252.5 64.9 255.6 62.8Q258.7 60.7 260.2 57.1H270.2Q268.9 61.7 265.8 65.35Q262.7 69 258.15 71.1Q253.6 73.2 247.7 73.2ZM233 42.1H261.7Q261.4 35.8 257.5 32.25Q253.6 28.7 247.8 28.7Q243.7 28.7 240.3 30.55Q236.9 32.4 234.9 35.9Q233.4 38.5 233 42.1Z"/>
  <path fill="#B8431F" d="M0.0 84.25H276.0V89.75H0.0Z"/>
  <path fill="#17191C" d="M30.1 175.2Q22.8 175.2 17.1 171.85Q11.4 168.5 8.15 162.6Q4.9 156.7 4.9 148.9Q4.9 141 8.15 135.05Q11.4 129.1 17.1 125.75Q22.8 122.4 30.1 122.4Q39.3 122.4 45.5 127.2Q51.7 132 53.4 140.2H43Q42 135.8 38.45 133.4Q34.9 131 30 131Q26 131 22.6 133.05Q19.2 135.1 17.15 139.05Q15.1 143 15.1 148.8Q15.1 153.1 16.3 156.45Q17.5 159.8 19.55 162.1Q21.6 164.4 24.3 165.55Q27 166.7 30 166.7Q33.3 166.7 35.95 165.65Q38.6 164.6 40.45 162.5Q42.3 160.4 43 157.5H53.4Q51.7 165.5 45.5 170.35Q39.3 175.2 30.1 175.2Z M62.6 174V102H72.6V131.8Q75.1 127.4 79.55 124.9Q84 122.4 89.4 122.4Q95.4 122.4 99.7 124.85Q104 127.3 106.3 132.15Q108.6 137 108.6 144.3V174H98.7V145.4Q98.7 138.3 95.7 134.65Q92.7 131 86.8 131Q82.8 131 79.6 132.9Q76.4 134.8 74.5 138.45Q72.6 142.1 72.6 147.3V174Z M141.7 175.2Q134.5 175.2 128.9 171.9Q123.3 168.6 120.15 162.7Q117 156.8 117 149Q117 141 120.15 135.05Q123.3 129.1 128.9 125.75Q134.5 122.4 141.9 122.4Q149.3 122.4 154.6 125.7Q159.9 129 162.8 134.45Q165.7 139.9 165.7 146.5Q165.7 147.5 165.65 148.65Q165.6 149.8 165.5 151.2H126.8Q127.1 155.8 128.9 159.1Q130.9 163 134.3 164.95Q137.7 166.9 141.7 166.9Q146.5 166.9 149.6 164.8Q152.7 162.7 154.2 159.1H164.2Q162.9 163.7 159.8 167.35Q156.7 171 152.15 173.1Q147.6 175.2 141.7 175.2ZM127 144.1H155.7Q155.4 137.8 151.5 134.25Q147.6 130.7 141.8 130.7Q137.7 130.7 134.3 132.55Q130.9 134.4 128.9 137.9Q127.4 140.5 127 144.1Z M197.6 175.2Q190.3 175.2 184.6 171.85Q178.9 168.5 175.65 162.6Q172.4 156.7 172.4 148.9Q172.4 141 175.65 135.05Q178.9 129.1 184.6 125.75Q190.3 122.4 197.6 122.4Q206.8 122.4 213 127.2Q219.2 132 220.9 140.2H210.5Q209.5 135.8 205.95 133.4Q202.4 131 197.5 131Q193.5 131 190.1 133.05Q186.7 135.1 184.65 139.05Q182.6 143 182.6 148.8Q182.6 153.1 183.8 156.45Q185 159.8 187.05 162.1Q189.1 164.4 191.8 165.55Q194.5 166.7 197.5 166.7Q200.8 166.7 203.45 165.65Q206.1 164.6 207.95 162.5Q209.8 160.4 210.5 157.5H220.9Q219.2 165.5 213 170.35Q206.8 175.2 197.6 175.2Z M261.8 174 240.1 148.2V174H230.1V102H240.1V144.8L259.6 123.6H271.7L250.1 146.6L274.4 174Z"/>
</svg>
